Genre:Action | Comedy | Crime 
Language:English
IMDb:http://www.imdb.com/title/tt1385867/
Subtitles: ROMANA
Encoder: Tony2
............................................
General
Complete name : Cop.Out.DVDRip.MP4.FEEL-FREE
Format : MPEG-4
Format profile : Base Media
Codec ID : isom
File size : 697 MiB
Duration : 1h 47mn
Overall bit rate : 907 Kbps
.............................................
Video
ID : 1
Format : AVC
Format/Info : Advanced Video Codec
Format profile : Main@L1.3
Format settings, CABAC : Yes
Format settings, ReFrames : 1 frame
Codec ID : avc1
Codec ID/Info : Advanced Video Coding
Duration : 1h 47mn
Bit rate mode : Variable
Bit rate : 774 Kbps
Width : 720 pixels
Height : 304 pixels
Display aspect ratio : 2.35:1
Frame rate mode : Constant
Frame rate : 29.970 fps
Resolution : 24 bits
Colorimetry : 4:2:0
Scan type : Progressive
Bits/(Pixel*Frame) : 0.118
Stream size : 595 MiB (85%)
.............................................
Audio
ID : 2
Format : AAC
Format/Info : Advanced Audio Codec
Format version : Version 4
Format profile : LC
Format settings, SBR : No
Codec ID : 40
Duration : 1h 47mn
Bit rate mode : Variable
Bit rate : 128 Kbps
Channel(s) : 2 channels
Channel positions : L R
Sampling rate : 44.1 KHz
Resolution : 16 bits
Stream size : 98.4 MiB (14%)
............................................
Plot:
A comedy about a veteran NYPD cop whose rare baseball card is stolen. Since it's his only hope to pay for his daughter's upcoming wedding, he recruits his partner to track down the thief, a memorabilia-obsessed gangster.
...................................................
Screenshots: 
http://postimg.com/image/18000/17332.jpg 
http://postimg.com/image/18000/17333.jpg 
http://postimg.com/image/18000/17334.jpg
..........................................................